<?xml version="1.0" standalone="no"?>
<!DOCTYPE svg PUBLIC "-//W3C//DTD SVG 20010904//EN"
 "http://www.w3.org/TR/2001/REC-SVG-20010904/DTD/svg10.dtd">
<svg version="1.0" xmlns="http://www.w3.org/2000/svg"
 width="201.000000pt" height="201.000000pt" viewBox="0 0 201.000000 201.000000"
 preserveAspectRatio="xMidYMid meet">
<metadata>
Created by potrace 1.14, written by Peter Selinger 2001-2017
</metadata>
<g transform="translate(0.000000,201.000000) scale(0.100000,-0.100000)"
fill="#000000" stroke="none">
<path d="M1935 1513 c-34 -9 -55 -34 -55 -69 0 -54 55 -88 106 -65 21 9 24 17
24 66 0 50 -2 56 -26 65 -14 6 -26 9 -27 9 -1 -1 -11 -4 -22 -6z"/>
<path d="M34 1491 c-2 -2 -4 -24 -4 -48 0 -49 -13 -45 138 -45 77 -1 92 -3 93
-17 1 -9 2 -162 3 -341 l1 -325 58 -3 c53 -3 57 -2 58 20 0 13 1 167 1 344 l0
321 110 -1 c60 -1 112 3 115 8 4 5 6 27 6 50 l0 40 -287 1 c-158 0 -290 -2
-292 -4z"/>
<path d="M788 1264 c-82 -28 -155 -104 -178 -184 -15 -52 -12 -141 7 -199 43
-134 185 -209 333 -176 119 26 199 127 208 261 6 101 -16 163 -82 230 -79 78
-186 104 -288 68z m163 -105 c58 -30 89 -101 85 -189 -9 -180 -214 -236 -294
-80 -30 58 -27 159 7 213 40 64 137 91 202 56z"/>
<path d="M1385 1260 c-22 -10 -50 -27 -62 -39 -69 -66 -78 -185 -20 -263 l21
-28 -48 -49 c-55 -55 -55 -75 -4 -104 28 -16 30 -20 16 -28 -25 -14 -55 -69
-61 -111 -6 -48 22 -108 64 -139 31 -22 45 -24 168 -27 153 -4 168 -2 212 35
44 37 68 95 63 152 -8 96 -75 139 -247 156 -69 6 -117 16 -122 25 -2 4 5 16
16 26 17 15 33 18 90 15 60 -2 78 1 125 24 68 33 105 85 112 155 2 27 -1 63
-7 81 -6 18 -9 34 -6 37 2 3 23 5 45 6 l41 1 -3 40 -3 40 -100 2 c-55 1 -134
4 -175 7 -58 3 -84 0 -115 -14z m185 -110 c53 -50 35 -144 -31 -165 -98 -32
-178 19 -166 106 7 52 29 76 81 87 55 11 81 5 116 -28z m14 -449 c79 -45 31
-145 -74 -155 -133 -14 -212 72 -143 154 l26 32 81 -7 c46 -4 94 -14 110 -24z"/>
<path d="M1896 1260 c-1 -3 -2 -126 -2 -275 l1 -270 58 -3 57 -3 0 279 0 279
-56 -1 c-31 -1 -57 -3 -58 -6z"/>
</g>
</svg>
